<?xml version="1.0" encoding="UTF-8"?>
<svg id="Layer_2" data-name="Layer 2" xmlns="http://www.w3.org/2000/svg" viewBox="0 0 49 49">
  <defs>
    <style>
      .cls-1 {
        fill: #fff;
      }

      .cls-2 {
        fill: #00724e;
      }

      .cls-3 {
        fill: #1d1d1b;
      }
    </style>
  </defs>
  <g id="Layer_1-2" data-name="Layer 1">
    <g>
      <path class="cls-2" d="M0,24.5C0,10.97,10.97,0,24.5,0s24.5,10.97,24.5,24.5-10.97,24.5-24.5,24.5S0,38.03,0,24.5"/>
      <path class="cls-1" d="M.72,24.5C.72,11.37,11.37,.72,24.5,.72s23.78,10.65,23.78,23.78-10.65,23.78-23.78,23.78S.72,37.63,.72,24.5"/>
      <path class="cls-2" d="M1.5,24.5C1.5,11.8,11.8,1.5,24.5,1.5s23,10.3,23,23-10.3,23-23,23S1.5,37.2,1.5,24.5"/>
      <path class="cls-1" d="M10.28,24.4c0-7.82,6.34-14.17,14.17-14.17s14.17,6.34,14.17,14.17-6.34,14.16-14.17,14.16-14.17-6.34-14.17-14.16"/>
      <path class="cls-1" d="M26.69,3.52c.39,.35,.5,.81,.48,1.31-.11,.36-.31,.71-.63,.96,.39,.29,.78,.59,.84,1.11,.11,.51-.04,.97-.33,1.34-.61,.69-1.57,.51-2.45,.54l-2.31,.06-.02-.21-.24-5.26v-.11c1.51,0,3.31-.4,4.66,.26"/>
      <path class="cls-1" d="M31,4.26c-.41,1.18-.95,2.35-1.24,3.59-.03,.31,.15,.63,.51,.72,.24,.13,.59,.16,.78,0,.79-1.1,1.16-2.48,1.65-3.72,.63,.22,1.12,.53,1.72,.76-.65,1.37-1.05,2.99-1.94,4.12-.65,.57-1.67,.43-2.45,.24-.89-.32-1.85-.89-2.12-1.88-.21-.68,.74-3.02,1.25-4.42l1.83,.59"/>
      <path class="cls-1" d="M16.65,10.81l-1.31,.87c-.49-.26-.78-.43-1.13-.6l-1.46,1.22c.15,.36,.34,.8,.5,1.19l-1.3,1.45-.1-.23-2.3-5.47,2.1-1.81,.17,.1c1.65,1.01,3.34,2.19,5.01,3.14l-.17,.11"/>
      <path class="cls-1" d="M16.98,10.61c-.69-1.68-1.54-3.65-2.16-5.23,1.58-.64,3.87-2.21,5.29-.75,.36,.4,.41,.96,.42,1.46-.09,.33-.17,.66-.39,.93,.47,.58,1.35,1.24,1.96,1.82l-.07,.03-1.79,.4c-.64-.51-1-.87-1.55-1.25-.24,.03-.4,.17-.63,.27l.62,1.41-1.68,.92"/>
      <path class="cls-2" d="M25.13,4.45c.14,.15,.11,.46,.03,.63-.26,.3-.74,.29-1.13,.24,.03-.34-.1-.67-.07-1.02,.34,.05,.93-.12,1.18,.15"/>
      <path class="cls-2" d="M18.56,5.82c.1,.25,.1,.65-.11,.8l-.99,.42c-.25-.45-.35-.76-.52-1.13,.46-.17,1.24-.86,1.61-.09"/>
      <path class="cls-2" d="M25.46,6.72c.08,.35-.08,.71-.42,.78-.32,.05-.56,.02-.9,.03-.05-.36-.08-.84-.05-1.14,.46,.06,1.15-.19,1.36,.33"/>
      <path class="cls-1" d="M38.9,8.66c.34,.42,.57,.94,.72,1.46-.42,.22-.74,.48-1.14,.66-.1-.62-.44-1.24-1.04-1.55-.29-.17-.72-.2-1.05-.09-.51,.19-.95,.63-1.13,1.14-.17,.49,.02,.97,.3,1.34,.39,.44,.91,.67,1.49,.69-.26,.43-.41,.71-.66,1.05-.98-.14-1.89-.68-2.45-1.58-.48-.77-.51-1.94-.09-2.75,.44-.89,1.3-1.45,2.24-1.58,1.13-.04,2.14,.41,2.81,1.23"/>
      <path class="cls-2" d="M13.04,10.33c-.27,.25-.57,.49-.9,.72-.24-.57-.47-1.08-.72-1.7,.57,.3,1.07,.66,1.61,.99"/>
      <path class="cls-1" d="M41.89,12.19c-.46,.46-1.06,.85-1.55,1.28,.78,.17,1.65,.14,2.45,.27,.36,.52,.55,1.02,.9,1.64l-2.93-.21c-.65,1.02-1.23,2.05-1.79,3.11-.35-.51-.62-1.16-.96-1.73,.38-.77,.87-1.58,1.25-2.35-.65,.4-1.22,.93-1.89,1.34l-1.03-1.39c1.39-1.19,2.9-2.26,4.36-3.34l.12-.04,1.08,1.42"/>
      <path class="cls-1" d="M9.02,11.82c-.26,.55-.61,.92-.86,1.44l3.4,2.24c-.18,.51-.57,1.01-.9,1.49l-3.49-2.18c-.31,.41-.54,.84-.85,1.36-.46-.3-.78-.5-1.15-.77,.87-1.45,1.69-2.8,2.64-4.3l1.2,.7"/>
      <path class="cls-3" d="M18.6,25.13c0,.23-.01,.47-.07,.7-.53,1.07-1.38,2-1.52,3.23-.61,.39-1.11,1.06-1.97,.84-.03,.23,.04,.58,.12,.84-.69-.03-1.16,.48-1.73,.72-.31-.1-.39-.5-.51-.78,.68-.23,1.16-.91,1.94-.9,.09-.25-.05-.48-.09-.72-.97-.43-2.5,2.12-2.63-.09,.97-.06,1.58-.96,2.54-1.05l.03-.72c-1.09-.11-1.78,1.01-2.87,.9l-.24-.96c1.25,.08,2-1.05,3.2-1.11,.16-.21,.18-.52,.21-.81-1.3-.17-2.2,1.27-3.58,.84,0,0-.05-.6-.07-.94h7.25"/>
      <path class="cls-3" d="M20.13,25.13c.04,.53-.09,1.06-.59,1.6-.72,.85-1.44,1.91-.93,3.05,.55,1.25,2.27,2.23,1.52,3.79-.41,.99-1.38,1.73-1.34,2.9-.26-.11-.53-.22-.75-.42,0-1.48,2.11-2.41,1.1-3.97-.09,.31-.11,.73-.18,1.08-.35,.91-1.1,1.63-1.37,2.57-.47-.18-.96-.56-1.34-.96l.54-.33c-.06-.2-.22-.37-.36-.54-.35-.05-.58,.18-.87,.27-.25-.22-.49-.42-.69-.69,.18-.51,1.57-.09,.87-.93-.48-.3-.96,.13-1.37,.33l-.57-.72c.49-.3,.98-.72,1.58-.6,.15,.27,.16,.67,.45,.81,1.03-.02,1.75-.8,2.54-1.4-.55-.82-1-1.94-.51-2.93,.39-.99,1.41-1.82,1.45-2.91h.81"/>
      <path class="cls-3" d="M21.59,25.13c.05,.46-.02,.92-.34,1.42-.65,.88-1.49,1.8-1.11,2.96,.37,1.17,1.82,1.87,1.73,3.23,0,1.6-1.87,2.6-1.34,4.39l-.93-.3c-.37-1.59,1.32-2.41,1.34-3.88,.24-1.69-1.92-2.32-1.79-3.97,0-1.25,1.1-2.05,1.58-3.11,.08-.26,.11-.5,.1-.73h.75"/>
      <path class="cls-3" d="M26.71,25.13c-.05,.39,0,.79,.22,1.21,.65,1.02,1.78,2.11,1.07,3.44-.75,1.09-1.99,2.16-1.49,3.58,.55,1.24,1.69,2.43,1.08,3.97l-.93,.21c.74-1.5-.37-3-1.01-4.3-.79-1.87,1.69-2.77,1.73-4.48,0-1.1-1.18-1.73-1.43-2.75-.51-.43-1.04,.17-1.64,.06-.45,.09-1.13-.62-1.4,.15-.32,1.12-1.77,1.95-1.13,3.29,.61,1.19,2.07,2.05,1.58,3.59-.44,1.43-1.88,2.8-.99,4.45-.37-.12-1.06,.11-1.05-.48-.57-2,1.85-3.17,1.11-5.17-.35-1.23-1.93-1.9-1.58-3.38,.26-1.21,1.62-2.06,1.43-3.39h4.45"/>
      <path class="cls-3" d="M28.15,25.13c-.02,.34,.05,.68,.27,1,.69,1.12,1.88,2.34,1.2,3.79-.78,1.16-2.13,2.35-1.37,3.88,.55,.92,1.39,1.83,1.17,2.96l-.9,.3c.6-2.1-2.33-3.34-1.11-5.44,.76-1.13,2.11-2.18,1.34-3.67-.46-.93-1.4-1.47-1.37-2.63l.03-.19h.74"/>
      <path class="cls-3" d="M29.63,25.13c0,.28,.06,.57,.22,.85,.65,1.17,1.81,2.27,1.37,3.73-.12,.45-.48,.8-.57,1.25,.76,.63,1.47,1.33,2.48,1.37,.36-.23,.16-1.24,.9-.78l1.08,.54c-.08,.29-.32,.55-.54,.75-.41-.2-.81-.44-1.31-.42-.15,.16-.28,.34-.27,.57,.36,.06,.69,.21,.98,.42-.14,.3-.41,.49-.66,.72l-.84-.3c-.14,.2-.43,.41-.33,.63,.19,.08,.4,.19,.54,.33-.37,.4-.84,.66-1.28,.93-.39-1.26-1.66-2.15-1.55-3.61l-.06-.06c-.3,.34-.2,.88-.18,1.31,.36,.92,1.21,1.62,1.34,2.63-.15,.26-.49,.31-.75,.42,.03-1.81-2.72-3.19-.96-5.02,.59-.9,1.57-1.75,1.22-2.99-.36-1.19-1.63-1.93-1.62-3.27h.77"/>
      <path class="cls-3" d="M37.59,25.13c0,.34,.04,.63-.09,.97-1.36,.39-2.26-1.06-3.58-.84l.15,.75c1.22,.04,1.99,1.21,3.26,1.16-.18,.36,.08,1.3-.72,.93-.83-.2-1.42-.93-2.33-.93-.11,.2-.04,.48-.06,.72,.96,.15,1.64,.96,2.6,1.11-.09,.33-.18,.7-.45,.9-.78-.19-1.38-.89-2.21-.87l-.15,.69c.79,.02,1.29,.72,2,.93,.02,.29-.24,.55-.39,.81-.63-.19-1.11-.73-1.82-.69-.01-.27,.15-.58,.09-.87-.81,.24-1.34-.51-1.94-.96-.02-1.47-1.56-2.43-1.64-3.81h7.29"/>
      <path class="cls-3" d="M11.35,25.13c0-.13-.02-.22-.02-.22,1.23,.48,2.32-.41,3.38-.87,.27-.08,.69,.06,.81-.24-.01-.23,.41-.5,.06-.66-1.54-.21-2.57,1.65-4.15,.81l-.12-.24c.33-4.5,2.87-8.85,7.08-10.99,3.76-2.15,9.54-1.97,13.08,.54,1.88,1.15,3.68,3.06,4.66,4.99,.93,1.69,1.36,3.59,1.49,5.61-1.63,1.23-2.73-1.16-4.39-.63,.09,.26,.14,.53,.33,.75,1.47-.01,2.49,1.53,4.03,.92v.22s-7.29,0-7.29,0c-.02-.27,.03-.57,.15-.88,.51-1.17,.35-2.7-.21-3.79-.17-.29-.47-.52-.75-.69,.41,.87,.91,1.89,.66,2.96-.03,.82-.51,1.61-.52,2.4h-.77v-.1c.29-1.39,1.17-2.88,.45-4.36-.2-.6-.65-1.27-1.25-1.52,.91,1.04,1.26,2.73,.75,4.12-.26,.55-.62,1.21-.66,1.87h-.74c.31-1.64,1.56-3.19,.68-4.94-.23-.52-.69-1.05-1.19-1.34l-.03,.03c1.02,.99,1.32,2.61,.78,3.91-.26,.76-.82,1.52-.93,2.34h-4.45c-.02-.11-.04-.23-.08-.34-.51-1.43-1.54-2.87-.93-4.54,.17-.48,.51-.89,.81-1.31-.99,.53-1.48,1.64-1.46,2.78-.04,1.23,.87,2.29,1,3.42h-.75c-.06-1.17-1.11-2.08-.94-3.39,.06-.97,.39-1.81,1.01-2.54-.87,.35-1.22,1.34-1.46,2.18-.42,1.34,.58,2.55,.68,3.75h-.81c.01-.25-.03-.51-.14-.79-.54-1.38-.73-3.25,.3-4.48-.56,.15-.89,.85-1.08,1.37-.62,1.35,.16,2.6,.19,3.9h-7.25"/>
      <path class="cls-1" d="M25.16,13.59l1.61,.09-.03,.15-1.19,1.13c.21,.51,.42,1.02,.63,1.52,.91-.53,1.77-1.18,2.87-1.25-.1,.58-.54,1.19-.48,1.76,.68-.19,1.3-.61,2.03-.57-.46,.85-1.13,1.69-1.17,2.75-1.01-.38-2.04-.84-3.17-1.02-2.4-.41-4.71,.12-6.69,1.08-.17-1.01-.66-1.88-1.25-2.72,.36-.12,.8,.08,1.17,.18,.31,.09,.57,.3,.9,.36,.06-.6-.29-1.18-.54-1.73,.17-.13,.44-.03,.63,.03,.79,.3,1.49,.77,2.21,1.19,.37-.43,.51-1.05,.66-1.61l-1.22-1.1v-.12l1.61-.09c.27-.51,.45-1.05,.72-1.55,.33,.45,.44,1.04,.72,1.52"/>
      <path class="cls-3" d="M25.73,16.84l-.15,.15c-.75-.08-1.53,.02-2.24,.03-.08-.08-.24-.2-.09-.3l1.14-.87c.47,.27,.97,.62,1.34,.99"/>
      <path class="cls-1" d="M5.81,17.26c-.62,.48-1.06,1.18-.93,1.97,.07,.12,.14,.3,.3,.33,.5,0,.67-.54,.9-.87,.27-.6,.79-1.25,1.49-1.31,.61-.04,1.13,.12,1.52,.6,.61,.73,.5,1.9,.21,2.75-.27,.63-.69,1.26-1.28,1.67l-1.08-.66c.59-.41,1.21-1.08,1.28-1.82,0-.27-.06-.63-.39-.66-.69,.2-.76,1.03-1.22,1.49-.36,.37-.81,.65-1.37,.57-.53-.03-.98-.36-1.28-.78-.59-.9-.3-2.21,.06-2.9,.22-.39,.48-.78,.84-1.08,.3,.17,.65,.43,.96,.69"/>
      <path class="cls-1" d="M44.82,18.04c.52,.84,.72,1.94,.45,2.96l-1.11-.06c.15-.67,.26-1.5-.21-2.06-.14-.17-.39-.27-.57-.18-.61,.68,.05,1.65-.33,2.42-.18,.35-.45,.77-.84,.93-.63,.24-1.4,.12-1.88-.36-.94-.98-1.37-2.49-.78-3.76h1.16c-.2,.5-.34,1.21-.15,1.79,.1,.25,.22,.57,.51,.66,.96,.03,.31-1.33,.54-1.97,.09-.48,.35-.98,.84-1.19,.9-.44,1.94,.06,2.36,.84"/>
      <path class="cls-1" d="M15.52,19.92c.97-.37,2.28-1.01,3.32-.33-.22,.31-.65,.48-.96,.75-.51,.5-1.12,1.1-1.49,1.73-1.24-.25-2.24,.48-3.29,.9-.4,.08-.93,.12-1.25-.15,.99-1.62,2.38-3.12,2.03-5.26,.11-.19,.3-.03,.42,.03,.77,.6,1.13,1.42,1.22,2.33"/>
      <path class="cls-1" d="M35.17,17.8c-.39,2.03,1.01,3.47,1.94,5.02-1.07,.72-2.09-.39-3.11-.66-.45-.07-.98-.13-1.4-.06-.62-.96-1.44-1.85-2.45-2.39,.06-.33,.52-.35,.84-.39,.89-.09,1.66,.28,2.39,.66,.14-.33,.2-.7,.3-1.05,.24-.59,.71-1.19,1.32-1.43,.13,.02,.22,.16,.18,.3"/>
      <path class="cls-1" d="M26.87,19.65c.03,.17,.2,.32,.09,.51-.59-.18-1.25-.08-1.82,.15-.51,.38-.43,1.16-.3,1.7l.15,.12c.25-.06,.26-.38,.48-.45,.37,.09,.88,.22,1.22,0,.31,.01,.3,.44,.33,.66-.22,1.16-.71,2.41-1.88,2.96-.49,.24-1.12,.08-1.58-.09-1.15-.69-1.8-2.05-1.67-3.28,.09-.19,.23-.34,.45-.21,.47,.32,.97-.25,1.4,.15,.52-.23,.21-.87,.21-1.34-.42-.54-1.13-.46-1.76-.42-.28-.17,.02-.44,.09-.63,.68-.96,1.97-.98,3.11-.84,.58,.15,1.22,.4,1.49,1.02"/>
      <path class="cls-1" d="M23.4,21.03v.12c-.34-.03-.89-.37-1.19,.06-.2,.09-.23-.14-.21-.27-.04-.15,.05-.27,.18-.3,.47-.11,.99,.03,1.22,.39"/>
      <path class="cls-1" d="M26.96,20.88c0,.12,.02,.26-.12,.33-.38-.15-.91-.36-1.28-.06-.22-.47,.39-.37,.6-.51,.31-.01,.67-.02,.81,.24"/>
      <path class="cls-3" d="M25.04,22.79c-.18,.38-.76,.14-1.08,.21-.11-.04-.04-.16-.06-.24,.32-.22,.89-.25,1.14,.03"/>
      <path class="cls-3" d="M25.52,23.63c-.24,.36-.6,.81-1.07,.78-.54,.04-.66-.4-1.05-.66l-.03-.18c.72,.11,1.5-.03,2.15,.06"/>
      <path class="cls-1" d="M6.91,28.29c.6,0,1.18,.02,1.81,0l-1.39,1.16c.13,.49,.25,1.05,.42,1.7l-1.37-.96c-.58,.26-.93,.59-1.52,.9l.48-1.64c-.45-.37-.96-.72-1.39-1.1,.63-.02,1.17,0,1.78,0,.28-.52,.4-1.12,.66-1.64l.54,1.58"/>
      <path class="cls-1" d="M13.99,36.14c.12,.29,.29,.52,.37,.95-.32,.2-.72,.36-1.08,.54-.09-.66-.67-1.29-1.31-1.46-.54-.13-1.12,.12-1.52,.6-.33,.39-.43,.95-.33,1.43,.26,.68,.98,1.19,1.7,1.19h.21c-.2,.48-.33,.72-.54,1.08-1.21-.04-2.42-.75-2.87-1.91-.39-.95-.22-2.17,.39-2.96,.74-.94,1.91-1.19,3.05-.96,.77,.21,1.48,.79,1.94,1.49"/>
      <path class="cls-1" d="M37.2,35.51l.08,.07-1.79,1.67,.6,.72c.51-.4,1.06-.82,1.6-1.33,.28,.23,.5,.51,.77,.82-.54,.51-1.1,.86-1.56,1.35,.2,.25,.35,.53,.66,.83l1.93-1.59,.83,.85c-1.1,1.04-2.29,2.11-3.42,2.94l-3.38-4.36c1.08-.9,1.98-1.71,2.93-2.66,.29,.19,.5,.44,.78,.69"/>
      <path class="cls-1" d="M18.2,39.19c.61,.78,.62,1.98,.24,2.87-.42,.9-1.23,1.47-2.12,1.67-1.07,.17-2.09-.18-2.87-.93-.69-.76-1.07-1.84-.72-2.9,.31-1.15,1.42-1.98,2.57-2.12,1.18-.07,2.28,.48,2.9,1.4"/>
      <path class="cls-2" d="M16.95,39.91c.34,.79-.05,1.56-.6,2.12-.35,.28-.8,.45-1.26,.28-.29-.14-.64-.39-.72-.7-.22-.8,.14-1.54,.7-2.09,.34-.28,.83-.44,1.25-.24,.26,.08,.55,.37,.63,.63"/>
      <path class="cls-1" d="M28.84,41.17c-.84,.12-1.64,.22-2.44,.35,.08,.39,.04,.66,.1,.96,.75-.01,1.4-.15,2.1-.24l.2,1.28c-.68,.13-1.43,.24-2.14,.31,.02,.58,.1,1.28,.09,1.92-.59,.09-1.22,.15-1.83,.11l-.36-5.45v-.11c1.34-.13,2.71-.3,4-.51,.06,.41,.18,.88,.27,1.38"/>
      <path class="cls-1" d="M33.41,38.72l.05,.09-2.19,1.1,.37,.86c.67-.25,1.24-.49,1.91-.83,.2,.3,.34,.63,.51,1-.6,.32-1.22,.57-1.88,.86,.12,.29,.18,.51,.4,.98l2.3-.99,.55,1.05c-1.34,.69-2.79,1.38-4.11,1.86l-2.02-5.13c1.28-.56,2.38-1.09,3.56-1.73,.22,.26,.36,.56,.55,.88"/>
      <path class="cls-1" d="M23.75,41.79c-.83-.14-1.63-.29-2.43-.41-.04,.4-.16,.64-.19,.94,.72,.21,1.38,.29,2.07,.41l-.19,1.28c-.69-.09-1.43-.21-2.13-.36-.16,.56-.3,1.25-.5,1.86-.59-.09-1.21-.23-1.78-.45l1.31-5.3,.03-.11c1.32,.29,2.68,.54,3.97,.73-.07,.41-.1,.89-.16,1.4"/>
      <path class="cls-1" d="M43.1,28.29c.6,0,1.14,.01,1.8,0l-1.39,1.16c.13,.49,.25,1.05,.42,1.7l-1.37-.96c-.58,.26-.93,.59-1.52,.9l.48-1.64c-.45-.37-.96-.72-1.39-1.1,.62-.02,1.17,0,1.78,0,.24-.54,.42-1.07,.66-1.64l.54,1.58"/>
      <path class="cls-3" d="M40.66,45.09c.78,0,1.45,.61,1.45,1.43s-.67,1.43-1.45,1.43-1.45-.6-1.45-1.43,.67-1.43,1.45-1.43Zm0,.23c-.66,0-1.18,.51-1.18,1.2s.51,1.2,1.18,1.2,1.17-.5,1.17-1.2-.51-1.2-1.17-1.2Zm-.3,2.02h-.25v-1.65h.63c.39,0,.59,.15,.59,.47,0,.3-.19,.42-.43,.45l.47,.72h-.28l-.44-.72h-.29v.72Zm0-.93h.3c.31,0,.41-.09,.41-.27,0-.16-.08-.25-.37-.25h-.34v.52Z"/>
    </g>
  </g>
</svg>